<svg xmlns="http://www.w3.org/2000/svg" fill="none" viewBox="0 0 24 24" id="Webdriverio--Streamline-Svg-Logos" height="24" width="24">
  <desc>
    Webdriverio Streamline Icon: https://streamlinehq.com
  </desc>
  <path fill="#000000" d="m3.634275 15.79 -0.791375 2.5004h-0.08715l-0.7931775 -2.30835c-0.0081825 -0.023225 -0.0147175 -0.047 -0.0195575 -0.07115 -0.0048675 0.02415 -0.0114025 0.047925 -0.0195575 0.07115l-0.7967175 2.30835h-0.085355L0.25 15.79h0.0800225c0.0187425 -0.001075 0.035415 0.0118 0.039115 0.030225l0.690035 2.2212c0.012275 0.04215 0.02237 0.084875 0.0302425 0.12805 0.0047225 -0.0237 0.0097625 -0.046225 0.01512 -0.067575 0.00532 -0.02135 0.01095 -0.0415 0.0168925 -0.060475l0.770055 -2.2212c0.00472 -0.0193 0.0229125 -0.032175 0.0426775 -0.030225h0.02312c0.0187425 -0.001075 0.0354175 0.0118 0.039115 0.030225l0.770055 2.2212c0.013025 0.04145 0.0237 0.0836 0.032 0.126275 0.004725 -0.0237 0.00945 -0.045925 0.014225 -0.0667 0.004725 -0.020725 0.01005 -0.0406 0.016 -0.059575l0.690025 -2.2212c0.004725 -0.0193 0.022925 -0.032175 0.042675 -0.030225h0.0729Zm1.97575 2.416825 -0.003525 0.083575h-1.4761V15.79h1.4761v0.08355h-1.378275v1.10795h1.1613v0.0818h-1.1613v1.143525h1.3818ZM6.87625 15.79c0.272675 0 0.475425 0.054525 0.608225 0.1636 0.13275 0.109075 0.19915 0.2638 0.199175 0.46415 0.00015 0.069175 -0.01315 0.137725 -0.039125 0.20185 -0.026175 0.06475 -0.06315 0.1246 -0.109375 0.17695 -0.0488 0.054925 -0.106525 0.1012 -0.170725 0.136925 -0.06945 0.03885 -0.144875 0.0659 -0.2232 0.08005 0.093875 0.00875 0.186075 0.0306 0.273875 0.064925 0.0755 0.029425 0.145075 0.0722 0.205425 0.12625 0.055825 0.050925 0.099825 0.113425 0.128925 0.183175 0.030425 0.074775 0.04555 0.1549 0.04445 0.235625 0.00185 0.097375 -0.016925 0.19405 -0.055125 0.283675 -0.0361 0.08155 -0.0913 0.153225 -0.16095 0.20895 -0.07675 0.060075 -0.164725 0.104225 -0.25875 0.129825 -0.113525 0.031175 -0.230875 0.046125 -0.348575 0.04445h-0.7718V15.79h0.67755Zm-0.57975 0.078225v1.118625h0.5922c0.109175 0.0027 0.21795 -0.014475 0.321 -0.050675 0.0804 -0.02895 0.154175 -0.0737 0.216975 -0.131625 0.053975 -0.0505 0.0959 -0.1125 0.1227 -0.1814 0.02475 -0.0632 0.037725 -0.1304 0.038225 -0.1983 0 -0.179 -0.058375 -0.316525 -0.17515 -0.41255 -0.1168 -0.09605 -0.295525 -0.144075 -0.5362 -0.144075h-0.57975Zm0.674 2.34215c0.233575 0 0.412875 -0.050075 0.53795 -0.150275 0.1251 -0.10015 0.187625 -0.246275 0.18765 -0.43835 0.001325 -0.08055 -0.016025 -0.1603 -0.0507 -0.233 -0.033925 -0.0689 -0.0832 -0.12915 -0.14405 -0.17605 -0.06805 -0.051475 -0.1453 -0.0895 -0.227625 -0.112025 -0.098125 -0.027225 -0.199625 -0.0404 -0.30145 -0.039125H6.2965v1.148825h0.674Zm3.521225 -1.170175c0.002775 0.178825 -0.026125 0.35675 -0.085375 0.525525 -0.05175 0.1463 -0.133525 0.280175 -0.240075 0.393025 -0.104025 0.107875 -0.23025 0.191925 -0.3699 0.246275 -0.151425 0.058375 -0.312575 0.08735 -0.47485 0.085375h-0.90165V15.79h0.90165c0.162275 -0.002 0.323425 0.026975 0.47485 0.08535 0.13965 0.054375 0.26585 0.138425 0.3699 0.2463 0.10655 0.11285 0.188325 0.246725 0.240075 0.393025 0.05925 0.168775 0.08815 0.3467 0.085375 0.525525Zm-0.10315 0c0.00275 -0.1689 -0.023425 -0.337 -0.077375 -0.49705 -0.0463 -0.136425 -0.120825 -0.261575 -0.21875 -0.36725 -0.094525 -0.099775 -0.2099 -0.1775 -0.337875 -0.22765 -0.13805 -0.05345 -0.285025 -0.08 -0.43305 -0.078225h-0.80385v2.34035h0.80385c0.148025 0.0018 0.295 -0.02475 0.43305 -0.078225 0.127975 -0.050125 0.24335 -0.127875 0.337875 -0.22765 0.097925 -0.105675 0.17245 -0.2308 0.21875 -0.367225 0.05395 -0.160075 0.080125 -0.328175 0.077375 -0.497075Zm2.391925 1.250225h-0.08005c-0.011775 0.000175 -0.0235 -0.001625 -0.034675 -0.005375 -0.012075 -0.00515 -0.0223 -0.013825 -0.02935 -0.024875l-0.882075 -1.0795c-0.0084 -0.01185 -0.018275 -0.0226 -0.02935 -0.032 -0.010225 -0.008375 -0.0216 -0.01525 -0.033775 -0.020425 -0.01425 -0.005825 -0.0292 -0.0097 -0.044475 -0.0116 -0.020925 -0.002575 -0.042025 -0.00375 -0.063125 -0.003525h-0.364575v1.1773h-0.0978V15.79h0.602875c0.271475 0 0.477775 0.05275 0.618875 0.15825 0.141075 0.10555 0.211625 0.2656 0.211625 0.480175 0.001275 0.09215 -0.017525 0.1835 -0.05515 0.26765 -0.036325 0.079475 -0.08905 0.150375 -0.1547 0.208075 -0.071175 0.0615 -0.1532 0.10915 -0.24185 0.1405 -0.1013 0.036275 -0.20735 0.05755 -0.314775 0.063125 0.02375 0.013925 0.044825 0.032 0.062225 0.05335l0.930125 1.1293Zm-1.56145 -1.252025h0.476625c0.10725 0.001375 0.214175 -0.0127 0.317425 -0.0418 0.087175 -0.024225 0.168725 -0.0653 0.2401 -0.1209 0.064525 -0.05115 0.116275 -0.1166 0.15115 -0.1912 0.035925 -0.07925 0.05385 -0.1655 0.052475 -0.252525 0 -0.193225 -0.06285 -0.335475 -0.188525 -0.4268 -0.125675 -0.0913 -0.307075 -0.13695 -0.544175 -0.13695h-0.505075v1.170175Zm2.12335 1.252h-0.097825V15.79h0.097825v2.5004ZM15.9673 15.79l-1.038625 2.5004h-0.087125L13.80295 15.79h0.0765c0.018725 -0.001075 0.0354 0.0118 0.0391 0.030225l0.928325 2.239c0.0071 0.018975 0.013925 0.03825 0.02045 0.0578 0.0065 0.019575 0.012725 0.039425 0.018675 0.05955 0.010475 -0.039725 0.02295 -0.078875 0.03735 -0.11735l0.926525 -2.239c0.004725 -0.0193 0.022925 -0.0322 0.042675 -0.030225h0.07475Zm1.940125 2.416825 -0.00355 0.083575h-1.47605V15.79h1.47605v0.08355h-1.37825v1.10795h1.1613v0.0818h-1.1613v1.143525h1.3818Zm2.247925 0.0836h-0.08005c-0.011775 0.000175 -0.0235 -0.001625 -0.034675 -0.005375 -0.01205 -0.00515 -0.022275 -0.013825 -0.02935 -0.024875l-0.882075 -1.0795c-0.008425 -0.01185 -0.018275 -0.0226 -0.02935 -0.032 -0.01025 -0.008375 -0.021625 -0.01525 -0.0338 -0.020425 -0.014225 -0.005825 -0.029175 -0.0097 -0.044425 -0.0116 -0.02095 -0.002575 -0.04205 -0.00375 -0.06315 -0.003525h-0.364575v1.1773h-0.0978V15.79h0.6029c0.271475 0 0.47775 0.05275 0.61885 0.15825 0.141075 0.10555 0.211625 0.2656 0.211625 0.480175 0.0013 0.09215 -0.017525 0.1835 -0.055125 0.26765 -0.03635 0.079475 -0.089075 0.150375 -0.154725 0.20805 -0.07115 0.0615 -0.153175 0.10915 -0.24185 0.1405 -0.1013 0.0363 -0.20735 0.057575 -0.3148 0.06315 0.023775 0.013925 0.044875 0.032 0.062275 0.05335l0.9301 1.1293Zm-1.56145 -1.252025h0.4766c0.107275 0.001375 0.2142 -0.0127 0.31745 -0.0418 0.087175 -0.024225 0.168725 -0.0653 0.2401 -0.1209 0.064525 -0.05115 0.116275 -0.1166 0.15115 -0.1912 0.03595 -0.07925 0.053875 -0.1655 0.052475 -0.252525 0 -0.193225 -0.06285 -0.335475 -0.188525 -0.4268 -0.125675 -0.0913 -0.307075 -0.13695 -0.544175 -0.13695h-0.505075v1.170175Z" stroke-width="0.25"></path>
  <path fill="#ea5906" d="M20.9492 15.72265h2.447625c0.195075 0 0.35325 0.15815 0.35325 0.35325v1.865725c0 0.1951 -0.158175 0.35325 -0.35325 0.35325h-2.447625c-0.1951 0 -0.35325 -0.15815 -0.35325 -0.35325v-1.865725c0 -0.1951 0.15815 -0.35325 0.35325 -0.35325Z" stroke-width="0.25"></path>
  <path fill="#f2f2f2" d="M21.1398 17.810875h-0.0618V16.231h0.0618v1.579875Zm0.1809 0.065175c-0.003075 0.008225 -0.009075 0.015025 -0.01685 0.0191 -0.007325 0.0037 -0.0154 0.00565 -0.023625 0.00565h-0.022475l0.710175 -1.690025c0.006425 -0.0153 0.0216 -0.025125 0.0382 -0.024725h0.0247l-0.710125 1.69Zm2.197875 -0.8551c0.00165 0.1137 -0.016625 0.22685 -0.05395 0.334275 -0.0328 0.094075 -0.0844 0.180475 -0.151675 0.253975 -0.06525 0.0701 -0.145 0.125125 -0.233725 0.161225 -0.192975 0.074925 -0.407025 0.074925 -0.600025 0 -0.0887 -0.0361 -0.168475 -0.091125 -0.233725 -0.161225 -0.067275 -0.0735 -0.118875 -0.1599 -0.1517 -0.253975 -0.071925 -0.21685 -0.071925 -0.451125 0 -0.668 0.03275 -0.09425 0.08435 -0.18085 0.1517 -0.2545 0.0654 -0.070225 0.1451 -0.125575 0.2337 -0.162375 0.094775 -0.039025 0.19645 -0.058525 0.298925 -0.057325 0.10315 -0.001325 0.205525 0.017975 0.301125 0.05675 0.088675 0.036475 0.1684 0.09165 0.233725 0.1618 0.067325 0.07365 0.11895 0.160275 0.151675 0.25455 0.0373 0.107625 0.05555 0.220925 0.05395 0.334825Zm-0.065175 0c0.001625 -0.10745 -0.0149 -0.214375 -0.04885 -0.316325 -0.0294 -0.0878 -0.07645 -0.168675 -0.138225 -0.23765 -0.05925 -0.06495 -0.132175 -0.116 -0.213475 -0.14945 -0.1759 -0.068925 -0.371325 -0.068925 -0.547225 0 -0.08135 0.03345 -0.15425 0.084475 -0.213525 0.14945 -0.061875 0.0691 -0.109275 0.1499 -0.13935 0.23765 -0.066675 0.2056 -0.066675 0.427025 0 0.632625 0.0299 0.087475 0.077325 0.167975 0.13935 0.236525 0.0595 0.064425 0.132375 0.11505 0.2135 0.14835 0.1759 0.068925 0.371325 0.068925 0.547225 0 0.081125 -0.0333 0.154 -0.08395 0.2135 -0.14835 0.061925 -0.068425 0.109 -0.148975 0.138225 -0.236525 0.03395 -0.101925 0.050475 -0.208875 0.04885 -0.3163Z" stroke-width="0.25"></path>
  <path fill="#ea5906" d="M13.610875 7.54655c0.179575 0.000525 0.325 0.145975 0.32555 0.325525v0.03335c0.218225 0.03565 0.951975 0.282 0.951975 1.0752v1.725725c0.086175 0.057175 0.1394 0.135125 0.1394 0.221075 -0.0023 0.06905 -0.03345 0.133975 -0.085875 0.178975 -0.00565 0.126225 0.03085 0.3778 0.047025 0.4731l0.000625 0.00635c0 0.0051 0.00055 0.1268 -0.07945 0.20755 -0.047975 0.04695 -0.11325 0.07195 -0.180325 0.0691 -0.23455 0 -0.244525 -0.1971 -0.249375 -0.291875 -0.00055 -0.012 -0.001025 -0.022825 -0.001975 -0.03235 -0.003825 -0.03915 -0.017575 -0.059175 -0.040875 -0.059575h-0.002275c-0.0249 0 -0.041075 0.00755 -0.0677 0.048125 -0.073875 0.10935 -0.20785 0.098825 -0.279375 0.0566 -0.038825 -0.021725 -0.06655 -0.059 -0.0762 -0.102425 -0.01335 -0.0614 0.00895 -0.134175 0.066175 -0.2162 0.03495 -0.045275 0.052825 -0.101425 0.050475 -0.158575 -0.052325 -0.045 -0.08345 -0.109825 -0.0858 -0.178825 0 -0.0861 0.053425 -0.1643 0.140025 -0.22145v-1.55475c0 -0.129525 -0.039875 -0.1789 -0.121975 -0.2523 -0.035175 -0.030725 -0.07835 -0.0508 -0.1245 -0.05795v2.481425c-0.000525 0.179575 -0.145975 0.325025 -0.32555 0.325525h-0.23085v0.91255h0.1876l0.003625 0.0007c0.003275 0.000575 0.321275 0.063375 0.359375 0.40515v0.3502h-1.1337l-0.348625 -0.121775v-0.2651c-0.008725 -0.136825 0.015875 -0.238325 0.07105 -0.2939v-0.987825h-1.487325v0.987825c0.055275 0.055575 0.079675 0.157075 0.0711 0.2939v0.265125l-0.348625 0.12175h-1.133675v-0.350175c0.036875 -0.33095 0.3361 -0.400325 0.357975 -0.4049l0.001225 -0.00025 0.003775 -0.0007h0.187625v-0.91255h-0.224125c-0.17955 -0.00055 -0.325 -0.145975 -0.325525 -0.32555v-2.48155c-0.04615 0.007175 -0.0893 0.027325 -0.124425 0.0581 -0.082125 0.0734 -0.122075 0.122775 -0.122075 0.2523v1.55475c0.0866 0.05715 0.14005 0.13535 0.14005 0.221425 -0.002275 0.069 -0.033375 0.133875 -0.085725 0.17885 -0.002425 0.05715 0.015425 0.1133 0.0504 0.15855 0.057225 0.08205 0.079525 0.1548 0.06625 0.2162 -0.009725 0.04345 -0.037475 0.0807 -0.0763 0.10245 -0.0716 0.042225 -0.20545 0.05275 -0.2794 -0.0566 -0.0266 -0.040575 -0.042775 -0.048125 -0.067725 -0.048125h-0.0022c-0.0233 0.0004 -0.037125 0.020425 -0.0408 0.059575 -0.000975 0.009525 -0.0015 0.020325 -0.00215 0.03235 -0.004775 0.09475 -0.01475 0.291875 -0.249225 0.291875 -0.067075 0.00285 -0.132375 -0.02215 -0.1804 -0.0691 -0.0799 -0.080775 -0.079425 -0.20245 -0.07935 -0.20755l0.00055 -0.00635c0.01625 -0.0953 0.05275 -0.3469 0.047025 -0.473125 -0.0524 -0.045 -0.08355 -0.109925 -0.085875 -0.178975 0 -0.08595 0.05315 -0.1639 0.1394 -0.22105v-1.72575c0 -0.7932 0.73365 -1.03955 0.951975 -1.0752v-0.03335c0.000575 -0.17955 0.145975 -0.32495 0.325525 -0.325525h3.663575Zm0.22835 5.372025h-0.97815c0.0016 0.015925 0.00215 0.03195 0.001625 0.04795h0.985475c-0.0021 -0.016125 -0.0051 -0.03215 -0.00895 -0.04795Zm-3.148825 0h-0.978275c-0.003875 0.0158 -0.006825 0.031825 -0.008875 0.04795h0.9854c-0.000475 -0.016 0.0001 -0.032025 0.00175 -0.04795Zm1.9357 -0.2436c-0.01795 -0.001725 -0.0357 0.0049 -0.0481 0.018 -0.03135 0.03115 -0.0486 0.0952 -0.049375 0.179825l0.2522 0.088075c-0.001575 -0.085325 -0.0312 -0.16775 -0.0843 -0.23455 -0.029525 -0.0361 -0.055725 -0.050175 -0.070425 -0.05135Zm-1.70085 0c-0.014675 0.0012 -0.0409 0.01525 -0.0704 0.05135 -0.0531 0.0668 -0.08275 0.149225 -0.084325 0.23455l0.252225 -0.088075c-0.000725 -0.084625 -0.017975 -0.148675 -0.049375 -0.17985 -0.0124 -0.013075 -0.03015 -0.019725 -0.048125 -0.017975Zm-0.104075 -0.0325h-0.82935c-0.02545 0.00575 -0.195625 0.050875 -0.264225 0.22695h0.970775c0.016 -0.07115 0.047775 -0.137825 0.09295 -0.195075 0.009225 -0.011275 0.0192 -0.021925 0.02985 -0.031875Zm2.738375 0h-0.829275c0.010575 0.00995 0.0205 0.0206 0.029675 0.031875 0.04525 0.057225 0.077025 0.1239 0.093025 0.195075h0.9708c-0.0636 -0.1632 -0.214425 -0.2139 -0.256425 -0.225025l-0.0057 -0.001425 -0.0021 -0.0005Zm-0.846 -0.994575h-0.1121v0.91255h0.1121v-0.2023h-0.0383v-0.1723h0.0383v-0.53795Zm0.61725 0h-0.103225v0.91255h0.103225v-0.91255Zm-2.3808 0h-0.1121v0.53795h0.0383v0.1723h-0.0383v0.2023H10.95v-0.91255Zm-0.626125 0h-0.103225v0.91255h0.103225v-0.91255Zm-1.625575 -0.482075c-0.007775 0.142 -0.02365 0.28345 -0.04755 0.42365 0.000525 0.015875 0.005625 0.096025 0.056025 0.14665 0.03265 0.031025 0.076725 0.0471 0.121675 0.044375 0.0577 0 0.094825 -0.01565 0.11925 -0.04155 -0.042875 -0.00775 -0.0816 -0.030475 -0.109275 -0.064125 -0.03085 -0.04075 -0.037375 -0.093575 -0.0194 -0.157 0.006375 -0.02245 0.01155 -0.040125 0.016025 -0.055175 0.00375 -0.0126 0.006925 -0.023375 0.009825 -0.03375l0.0028 -0.0103c0.009925 -0.0377 0.016825 -0.076625 0.032425 -0.187625 -0.0637 -0.011875 -0.125075 -0.033875 -0.1818 -0.06515Zm6.161575 0c-0.056725 0.031275 -0.1181 0.053275 -0.1818 0.06515 0.02135 0.15135 0.026375 0.1687 0.04505 0.231675 0.005475 0.01835 0.0108 0.03675 0.016025 0.055175 0.017975 0.063425 0.01145 0.11625 -0.019375 0.157 -0.027675 0.03365 -0.0664 0.056375 -0.109275 0.064125 0.0244 0.0259 0.061525 0.04155 0.1193 0.04155 0.044975 0.002725 0.08905 -0.01335 0.1217 -0.044375 0.050375 -0.050625 0.055475 -0.130775 0.055975 -0.14665 -0.023875 -0.1402 -0.039775 -0.28165 -0.0476 -0.42365Zm-0.44995 0.0683c-0.023 0.034925 -0.0493 0.06755 -0.078575 0.0974 -0.029375 0.0289 -0.054725 0.061625 -0.075375 0.097275 -0.00625 0.010725 -0.00755 0.02365 -0.0036 0.035425 0.0065 0.014775 0.016975 0.027475 0.030275 0.036625 0.006275 -0.005875 0.0119 -0.012425 0.01675 -0.019525 0.029125 -0.044425 0.06705 -0.0854 0.1395 -0.084625 0.0679 0.0011 0.113275 0.0511 0.1212 0.13375 0.001025 0.012 0.0018 0.024025 0.002275 0.03605 0.00105 0.032075 0.00475 0.063975 0.011 0.09545 0.0237 -0.002675 0.0624 -0.01185 0.08115 -0.036825 0.014375 -0.01915 0.01625 -0.047725 0.00565 -0.085025 -0.006175 -0.02205 -0.0113 -0.0394 -0.015675 -0.054225 -0.01965 -0.066025 -0.02545 -0.0858 -0.047675 -0.243825 -0.020175 0.001675 -0.04065 0.0025 -0.06145 0.0025 -0.042025 0.000025 -0.084 -0.00345 -0.12545 -0.010425Zm-5.26165 0c-0.041425 0.006975 -0.083375 0.01045 -0.125375 0.010425 -0.02085 -0.000025 -0.041375 -0.00085 -0.061525 -0.002525 -0.02215 0.158025 -0.028025 0.177825 -0.047675 0.24385 -0.004375 0.014825 -0.009475 0.032175 -0.015775 0.054225 -0.010525 0.0373 -0.00855 0.065875 0.00575 0.085025 0.018725 0.02495 0.05745 0.03415 0.08115 0.036825 0.006325 -0.03145 0.01 -0.0634 0.011 -0.095475 0.0007 -0.013325 0.001325 -0.0255 0.00235 -0.036025 0.007925 -0.08265 0.0532 -0.13265 0.121125 -0.133775 0.07245 -0.000775 0.110375 0.040225 0.139575 0.08465 0.0048 0.0071 0.010375 0.01365 0.016625 0.019525 0.01335 -0.0091 0.02385 -0.0218 0.0303 -0.036625 0.003975 -0.011775 0.00265 -0.0247 -0.0036 -0.035425 -0.02065 -0.03565 -0.046 -0.068375 -0.075375 -0.097275 -0.029225 -0.029875 -0.055525 -0.0625 -0.07855 -0.0974Zm0.2018 -0.069775c-0.041875 0.023625 -0.08655 0.04195 -0.13295 0.05455 0.018 0.023825 0.037375 0.0466 0.058 0.0682 0.03365 0.033275 0.062525 0.0711 0.085725 0.11235 0.014175 0.0266 0.016675 0.0579 0.0069 0.086425 -0.00605 0.016575 -0.015375 0.03175 -0.0274 0.04465 0.030375 0.00255 0.06085 -0.003625 0.08785 -0.017825 0.019125 -0.010125 0.03295 -0.02805 0.0379 -0.049125 0.008175 -0.0376 -0.010375 -0.090125 -0.053375 -0.15175 -0.0319 -0.0437 -0.053325 -0.094175 -0.06265 -0.147475Zm4.858025 -0.000025c-0.0093 0.053325 -0.030725 0.1038 -0.062625 0.1475 -0.04305 0.06165 -0.061475 0.11415 -0.0533 0.15175 0.004925 0.02105 0.018725 0.038975 0.037825 0.049125 0.027 0.0142 0.0575 0.020375 0.087925 0.017825 -0.0121 -0.012875 -0.02145 -0.028075 -0.027475 -0.044675 -0.0098 -0.0285 -0.0073 -0.0598 0.0069 -0.0864 0.02325 -0.041225 0.0521 -0.079025 0.08575 -0.11235 0.020625 -0.0216 0.039975 -0.044375 0.057975 -0.0682 -0.0464 -0.012625 -0.091075 -0.03095 -0.132975 -0.054575Zm-0.7188 -0.548525H10.068825v0.4851c0.00055 0.179575 0.145975 0.325 0.32555 0.32555h0.129675c-0.199925 -0.03375 -0.34065 -0.21505 -0.323725 -0.417075 0.016925 -0.20205 0.18585 -0.3574 0.3886 -0.3574s0.37165 0.15535 0.388575 0.3574c0.016925 0.202025 -0.123775 0.383325 -0.3237 0.417075h0.68515c-0.19955 -0.0344 -0.339575 -0.215775 -0.322325 -0.417525 0.01725 -0.20175 0.18605 -0.356725 0.38855 -0.356725 0.202475 0 0.371275 0.154975 0.388525 0.356725 0.01725 0.20175 -0.122775 0.383125 -0.322325 0.417525h1.69245c0.17955 -0.000575 0.32495 -0.146 0.325475 -0.325525v-0.485125Zm-1.923575 0.164225c-0.133125 -0.08175 -0.306325 -0.05125 -0.4035 0.071075 -0.097175 0.122325 -0.087725 0.297925 0.022 0.409125 0.109725 0.1112 0.2852 0.12295 0.4088 0.0274 0.123575 -0.09555 0.156375 -0.268325 0.0764 -0.402525l-0.2263 0.2264c-0.028875 0.0288 -0.0756 0.0288 -0.104475 0 -0.028825 -0.028825 -0.028825 -0.07555 -0.000025 -0.1044l0.2271 -0.227075Zm-0.9768 -0.04605c-0.155675 0 -0.28685 0.1162 -0.30565 0.270725 -0.0188 0.154525 0.0807 0.2988 0.231825 0.336125V11.03675c0 -0.019575 0.007775 -0.03835 0.0216 -0.0522 0.013825 -0.01385 0.0326 -0.021625 0.052175 -0.02165 0.01965 0.000025 0.038425 0.0078 0.052275 0.02165 0.01385 0.01385 0.021625 0.03265 0.0216 0.052225v0.30405c0.151125 -0.037325 0.250625 -0.1816 0.231825 -0.336125 -0.0188 -0.154525 -0.149975 -0.270725 -0.30565 -0.270725Zm1.989425 0.4587c0.0403 0.00065 0.072625 0.033525 0.072625 0.073825 0 0.040325 -0.032325 0.073175 -0.072625 0.073825h-0.295575c-0.0403 -0.00065 -0.07265 -0.0335 -0.07265 -0.073825 0 -0.0403 0.03235 -0.073175 0.07265 -0.073825h0.295575Zm0.589675 -0.221525c0.040325 0.00065 0.07265 0.0335 0.07265 0.073825 0 0.0403 -0.032325 0.07315 -0.07265 0.073825h-0.88525c-0.026675 0.000425 -0.051475 -0.01355 -0.06495 -0.036575 -0.01345 -0.023025 -0.01345 -0.0515 0 -0.074525 0.013475 -0.023025 0.038275 -0.037 0.06495 -0.03655h0.88525Zm0 -0.2215c0.0408 0 0.07385 0.033075 0.07385 0.07385s-0.03305 0.073825 -0.07385 0.073825h-0.88525c-0.040775 0 -0.073825 -0.03305 -0.073825 -0.073825s0.03305 -0.07385 0.073825 -0.07385h0.88525Zm-3.54625 -2.728275c-0.15745 0.033925 -0.306475 0.099025 -0.43835 0.19145 -0.264625 0.186275 -0.39875 0.444625 -0.39875 0.7678v1.621425h0.377325v-1.450825c0 -0.191 0.065 -0.378675 0.1932 -0.4933 0.07715 -0.0665 0.16825 -0.11485 0.266575 -0.141525v-0.495025Zm4.31465 0v0.495025c0.09835 0.02665 0.189475 0.075025 0.266675 0.141525 0.1281 0.1146 0.1931 0.3023 0.1931 0.4933v1.450825h0.377325v-1.621425c0 -0.323175 -0.13415 -0.581525 -0.39875 -0.7678 -0.131875 -0.092425 -0.280925 -0.157525 -0.43835 -0.19145Zm-0.447125 1.7186c-0.10755 -0.1224 -0.1917 -0.138025 -0.26 -0.12945 -0.055125 0.006825 -0.11695 0.068925 -0.176325 0.1355 -0.0748 0.08405 -0.159575 0.17935 -0.2752 0.17935 -0.083225 0 -0.152125 -0.0548 -0.2253 -0.112725 -0.09805 -0.0777 -0.209125 -0.165775 -0.389375 -0.1745 -0.1408 -0.0069 -0.255975 0.116875 -0.3278 0.22185 -0.036 0.053375 -0.06775 0.1095 -0.094975 0.167825h1.748975v-0.28785Zm-2.885725 -0.624325h-0.0563l-0.3782 0.9018h0.0562l0.3783 -0.9018Zm0.344225 0.01955c-0.243525 0 -0.405475 0.1964 -0.405475 0.415825v0.002275c0 0.219325 0.159675 0.41345 0.4032 0.41345 0.2434 0 0.40535 -0.1964 0.40535 -0.41575 0.001175 -0.001175 0.001175 -0.001175 0 -0.002325 0 -0.21935 -0.1596 -0.413475 -0.403075 -0.413475Zm-0.80045 0.013825h-0.05975v0.803925h0.05975v-0.803925Zm0.798175 0.04015c0.198575 0 0.343325 0.163125 0.343325 0.3618v0.002275c0 0.198675 -0.142375 0.359525 -0.34105 0.359525 -0.1987 0 -0.34345 -0.1631 -0.34345 -0.3618v-0.002275c0 -0.198675 0.142475 -0.359525 0.341175 -0.359525Zm2.543775 -0.11285h-1.794275v0.728025c0.101025 -0.156775 0.260075 -0.324075 0.475225 -0.313625 0.227575 0.0109 0.370075 0.1238 0.4739 0.206125 0.05245 0.041625 0.1019 0.080875 0.1336 0.080875 0.0494 0 0.1081 -0.066025 0.165025 -0.12985 0.077175 -0.086725 0.1811 -0.1822 0.302925 -0.185 0.09955 -0.002375 0.166575 0.017175 0.2436 0.074175v-0.460725Zm-0.3255 -1.324675H10.39435c-0.179575 0.000525 -0.325025 0.145975 -0.325525 0.32555v0.405825h3.420475v-0.405825c-0.0005 -0.179575 -0.14595 -0.325025 -0.3255 -0.32555Zm-2.85695 0.5099v0.13675h-0.13675v-0.13675h0.13675Zm0.229675 0v0.13675h-0.13675v-0.13675h0.13675Zm0.2297 0v0.13675h-0.13675v-0.13675h0.13675Zm0.229775 0v0.13675h-0.13675v-0.13675h0.13675Zm1.983225 -2.556475c0.1796 0.000525 0.325075 0.14595 0.325625 0.32555v1.06325c-0.00055 0.1796 -0.14605 0.32505 -0.32565 0.32555h-2.400275c-0.179575 -0.000525 -0.325 -0.145975 -0.325525 -0.32555v-1.06325c0.000525 -0.1796 0.145975 -0.32505 0.32555 -0.32555h2.400275Zm-0.000025 0.082025h-2.400275c-0.1344 0.000175 -0.243325 0.1091 -0.2435 0.243525v1.06325c0.000175 0.134425 0.1091 0.24335 0.243525 0.243525h2.400275c0.13445 -0.00015 0.2434 -0.109075 0.243575 -0.243525v-1.06325c-0.000175 -0.13445 -0.10915 -0.243375 -0.2436 -0.243525Zm-2.8393 0.514225v0.847425c-0.15145 -0.000025 -0.291325 -0.0808 -0.367 -0.2119 -0.075675 -0.1311 -0.07565 -0.2926 0.00005 -0.4237 0.0757 -0.131075 0.215575 -0.211825 0.36695 -0.211825Zm3.27845 0.000075c0.233975 0 0.423625 0.189675 0.4236 0.42365 -0.000025 0.234025 -0.1897 0.423675 -0.42365 0.42365v-0.8473h0.00005Zm-2.268175 -0.0411c0.239475 0 0.433625 0.194125 0.43365 0.4336 0.000025 0.2395 -0.1941 0.43365 -0.433575 0.4337 -0.115025 0 -0.22535 -0.045675 -0.306675 -0.127 -0.08135 -0.081325 -0.127025 -0.191625 -0.127025 -0.30665 0 -0.239475 0.194125 -0.433625 0.433625 -0.43365Zm1.2578 0c0.239475 0 0.433625 0.194125 0.43365 0.4336 0.000025 0.2395 -0.1941 0.43365 -0.433575 0.4337 -0.115025 0 -0.22535 -0.045675 -0.306675 -0.127 -0.08135 -0.081325 -0.127025 -0.191625 -0.127025 -0.30665 0 -0.239475 0.194125 -0.433625 0.433625 -0.43365Zm-1.257725 0.08205c-0.093275 -0.000025 -0.182725 0.037025 -0.248675 0.10295 -0.06595 0.06595 -0.103 0.1554 -0.103 0.24865 0 0.194175 0.1574 0.351575 0.351575 0.3516 0.19415 0 0.351575 -0.157375 0.3516 -0.35155 0.00005 -0.194175 -0.157325 -0.3516 -0.3515 -0.35165Zm1.2578 0c-0.093275 -0.000025 -0.182725 0.037025 -0.248675 0.10295 -0.06595 0.06595 -0.103 0.1554 -0.103 0.24865 0 0.194175 0.1574 0.351575 0.35155 0.3516 0.194175 0 0.3516 -0.157375 0.351625 -0.35155 0.000025 -0.194175 -0.15735 -0.3516 -0.3515 -0.35165Zm-1.370425 0.079775c0.10995 -0.04555 0.2365 -0.020375 0.32065 0.063775s0.109325 0.210725 0.063775 0.32065c-0.04555 0.10995 -0.15285 0.181625 -0.27185 0.181625 -0.078025 0 -0.152875 -0.031 -0.20805 -0.086175s-0.08615 -0.130025 -0.08615 -0.20805c0 -0.119 0.071675 -0.2263 0.181625 -0.271825Zm1.370325 -0.0224c0.1625 0 0.294225 0.131725 0.29425 0.2942 0 0.1625 -0.131725 0.29425 -0.294225 0.29425 -0.07805 0 -0.1529 -0.031 -0.208075 -0.086175s-0.08615 -0.130025 -0.08615 -0.20805c0 -0.1625 0.1317 -0.294225 0.2942 -0.294225ZM13.1325 6.71125l0.000025 0.13675h-0.13675v-0.13675h0.136725Zm0 -0.1968 0.000025 0.136675h-0.13675v-0.136675h0.136725Z" stroke-width="0.25"></path>
</svg>